<?xml version="1.0" encoding="utf-8"?>
<!-- Generator: Adobe Illustrator 27.5.0, SVG Export Plug-In . SVG Version: 6.00 Build 0)  -->
<svg version="1.1" xmlns="http://www.w3.org/2000/svg" xmlns:xlink="http://www.w3.org/1999/xlink" x="0px" y="0px"
	 viewBox="0 0 500 500" style="enable-background:new 0 0 500 500;" xml:space="preserve">
<g id="Plants">
	<g id="Plants_5_">
		<g id="XMLID_998_">
			<g id="XMLID_1001_">
				<path id="XMLID_1002_" style="fill:#E0E0E0;" d="M75.487,311.742c0,0,1.326-17.421-2.267-34.126
					c-3.592-16.705-12.31-29.555-23.053-34.574c-10.743-5.02-23.497,1.819-14.27,13.248c9.227,11.428,28.374,31.813,28.266,61.599
					L75.487,311.742z"/>
			</g>
			<g id="XMLID_999_">
				<path id="XMLID_1000_" style="fill:#FFFFFF;" d="M70.012,311.127c0.043,0.008,0.086,0.012,0.13,0.009
					c0.349-0.009,0.624-0.299,0.613-0.648c-1.004-36.483-13.155-54.75-27.195-64.039c-0.288-0.195-0.681-0.112-0.875,0.178
					c-0.192,0.291-0.113,0.683,0.178,0.875c13.85,9.164,25.639,27.057,26.63,63.021C69.502,310.828,69.725,311.076,70.012,311.127z"
					/>
			</g>
		</g>
		<g id="XMLID_995_">
			<g id="XMLID_996_">
				<path id="XMLID_997_" style="fill:#EBEBEB;" d="M21.156,278.96c0.208,2.018,1.835,3.564,3.392,4.869
					c1.549,1.295,3.249,2.712,3.674,4.695c0.854,4.003-3.889,7.698-2.864,11.66c0.431,1.661,1.83,2.918,3.343,3.729
					c1.253,0.684,2.614,1.125,3.93,1.679c0.655,0.198,1.316,0.361,1.973,0.477c1.945,0.335,3.989,0.904,5.381,2.408
					c2.188,2.376,1.91,6.025,2.688,9.161c0.934,3.756,3.164,5.957,8.277,7.743l17.497-9.921c4.365-4.445,5.9-12.046,1.885-17.212
					c-2.41-3.101-6.925-3.493-9.201-6.594c-2.042-2.783-0.858-6.8-2.114-10.015c-1.271-3.255-4.581-4.323-7.721-4.867
					c-3.235-0.561-6.474,0.749-9.541-0.37c-3.066-1.118-5.911-2.929-9.089-3.725c-3.091-0.773-6.592-0.495-9.161,1.538
					C22.063,275.359,20.969,277.129,21.156,278.96z"/>
			</g>
			<path style="fill:#FFFFFF;" d="M53.778,294.755c-0.028-0.074-0.075-0.137-0.137-0.188c-8.224-11.66-21.116-17.197-25.473-18.171
				c-0.243-0.052-0.489,0.1-0.545,0.346c-0.055,0.246,0.1,0.49,0.346,0.545c4.131,0.923,16.102,6.04,24.159,16.738
				c-11.441-3.676-19.98,1.682-20.069,1.739c-0.212,0.137-0.272,0.419-0.136,0.631c0.085,0.13,0.224,0.203,0.368,0.209
				c0.09,0.003,0.182-0.021,0.263-0.073c0.087-0.057,8.884-5.579,20.5-1.235c4.225,6.083,7.145,13.848,6.841,23.526
				c-0.008,0.24,0.171,0.442,0.405,0.468c0.013,0.001,0.025,0.002,0.037,0.002c0.251,0.008,0.463-0.19,0.47-0.442
				C61.12,308.932,58.116,300.98,53.778,294.755z"/>
		</g>
	</g>
	<g id="Plants_4_">
		<g id="XMLID_990_">
			<g id="XMLID_993_">
				<path id="XMLID_994_" style="fill:#E0E0E0;" d="M434.592,323.475c-0.173-12.996,0.069-24.989,6.665-43.467
					c5.535-15.507,19.753-31.149,29.356-30.486c8.944,0.618,10.925,11.607,2.881,21.386c-8.044,9.778-25.579,28.494-26.666,41.978
					l-3.426,15.325L434.592,323.475z"/>
			</g>
			<g id="XMLID_991_">
				<path id="XMLID_992_" style="fill:#FFFFFF;" d="M438.559,320.185c0.245-0.057,0.431-0.271,0.444-0.533
					c1.399-30.243,18.283-55.442,32.374-63.189c0.278-0.153,0.379-0.502,0.226-0.78c-0.151-0.277-0.495-0.386-0.78-0.227
					c-14.322,7.873-31.55,33.485-32.967,64.142c-0.015,0.316,0.23,0.585,0.546,0.6C438.457,320.202,438.509,320.197,438.559,320.185
					z"/>
			</g>
		</g>
		<g id="XMLID_985_">
			<g id="XMLID_988_">
				<path id="XMLID_989_" style="fill:#EBEBEB;" d="M446.7,330.073c0.549-4.562,4.725-12.613,12.391-19.938
					c8.481-8.103,20.061-13.059,22.023-18.624c2.357-6.685-3.555-10.255-13.327-8.165c-11.745,2.512-24.77,15.955-26.955,43.412
					L446.7,330.073z"/>
			</g>
			<g id="XMLID_986_">
				<path id="XMLID_987_" style="fill:#FFFFFF;" d="M444.073,325.798c0.213-0.052,0.385-0.223,0.429-0.453
					c4.492-23.994,20.532-34.73,28.385-37.055c0.304-0.09,0.477-0.41,0.388-0.714c-0.09-0.305-0.397-0.48-0.714-0.388
					c-8.684,2.57-24.603,13.454-29.189,37.945c-0.058,0.311,0.148,0.612,0.459,0.67C443.914,325.82,443.996,325.817,444.073,325.798
					z"/>
			</g>
		</g>
	</g>
</g>
<g id="Floor">
	<path id="Floor_1_" style="fill:#FAFAFA;" d="M93.711,456.783c-85.001-49.075-85.001-128.642,0-177.718s222.816-49.076,307.818,0
		s85.001,128.643,0,177.718S178.712,505.858,93.711,456.783z"/>
</g>
<g id="Shadows">
	<path id="Shadow_16_" style="fill:#E0E0E0;" d="M260.988,420.581l23.274-13.437c0.69-0.398,0.69-1.044,0-1.442l-5.703-3.292
		c-0.69-0.398-1.808-0.398-2.497,0l-23.274,13.437c-0.69,0.398-0.69,1.044,0,1.442l2.852,1.646l-29.208,16.863
		c-0.69,0.398-0.401,0.534-0.077,0.721c0.324,0.187,0.559,0.353,1.249-0.045l29.208-16.863l1.68,0.97
		C259.18,420.979,260.298,420.979,260.988,420.581z"/>
	<path id="Shadow_9_" style="fill:#E0E0E0;" d="M252.212,394.794c-1.969,0-3.821-0.45-5.214-1.267
		c-0.163-0.095-0.315-0.193-0.465-0.298l-0.861-0.605l7.323-1.073l0.663-1.385l-1.976-1.158l-6.982,1.02l0.231-0.654
		c0.314-0.889,1.055-1.686,2.144-2.305c1.382-0.786,3.202-1.219,5.126-1.219c0.801,0,1.589,0.075,2.345,0.223l23.878-13.786
		c-0.29-0.621-0.358-1.277-0.197-1.922c0.249-0.993,1.016-1.879,2.217-2.563c1.384-0.787,3.206-1.22,5.132-1.22
		c1.969,0,3.821,0.45,5.214,1.267c0.166,0.097,0.318,0.195,0.465,0.298l0.861,0.605l-7.323,1.073l-0.663,1.385l1.976,1.158
		l6.982-1.02l-0.231,0.655c-0.314,0.889-1.055,1.686-2.144,2.305c-1.382,0.786-3.202,1.219-5.126,1.219
		c-0.801,0-1.589-0.075-2.345-0.223l-23.878,13.786c0.29,0.621,0.358,1.277,0.197,1.921c-0.248,0.993-1.015,1.88-2.217,2.563
		C255.961,394.361,254.138,394.794,252.212,394.794z"/>
	<ellipse id="Shadow_5_" style="fill:#E0E0E0;" cx="151.576" cy="402.774" rx="76.289" ry="44.046"/>
	<polygon id="Shadow_4_" style="fill:#E0E0E0;" points="276.428,405.299 377.669,346.848 434.228,379.501 332.987,437.953 	"/>
	<path id="Shadow_8_" style="fill:#E0E0E0;" d="M250.311,371.242l-39.486-22.797c-1.435-0.828-1.435-2.172,0-3l63.859-36.869
		c1.435-0.828,3.761-0.828,5.196,0l39.486,22.797c1.435,0.828,1.435,2.172,0,3l-63.859,36.869
		C254.072,372.071,251.746,372.071,250.311,371.242z"/>
</g>
<g id="Tool_Box_1_">
	<g id="Tool_Box">
		<polygon style="fill:#263238;" points="252.909,367.44 252.909,334.609 212.289,311.155 216.35,346.333 		"/>
		<polygon style="fill:#37474F;" points="252.909,367.44 313.84,332.262 317.902,297.084 252.909,334.609 		"/>
		<g>
			<g>
				<path style="fill:#BA68C8;" d="M209.749,304.119c0-0.543,0.359-1.086,1.076-1.5l63.859-36.869c1.435-0.828,3.761-0.828,5.196,0
					l39.486,22.797c0.717,0.414,1.076,0.957,1.076,1.5s-0.003,8.84,0,9.381c0.003,0.545-0.355,1.091-1.076,1.508l-63.859,36.869
					c-1.435,0.828-3.761,0.828-5.196,0l-39.486-22.797c-0.717-0.414-1.076-0.957-1.076-1.5S209.749,304.662,209.749,304.119z"/>
				<path style="opacity:0.2;" d="M210.825,302.619l42.084-24.297v60.104c-0.94,0-1.881-0.207-2.598-0.621l-39.486-22.797
					c-0.717-0.414-1.076-0.957-1.076-1.5s0-8.845,0-9.388S210.107,303.033,210.825,302.619z"/>
				<path style="opacity:0.1;" d="M252.909,278.322l21.775-12.572c1.435-0.828,3.761-0.828,5.196,0l39.486,22.797
					c0.717,0.414,1.076,0.957,1.076,1.5s-0.003,8.84,0,9.381c0.003,0.545-0.355,1.091-1.076,1.508l-63.859,36.869
					c-0.718,0.414-1.658,0.621-2.598,0.621V278.322z"/>
				<path style="fill:#BA68C8;" d="M250.311,328.417l-39.486-22.797c-1.435-0.828-1.435-2.172,0-3l63.859-36.869
					c1.435-0.828,3.761-0.828,5.196,0l39.486,22.797c1.435,0.828,1.435,2.172,0,3l-63.859,36.869
					C254.072,329.245,251.746,329.245,250.311,328.417z"/>
			</g>
			<g>
				<path style="opacity:0.2;" d="M307.747,291.22c1.122,0.647,1.062,1.732-0.134,2.422l-44.415,25.643
					c-1.196,0.69-3.074,0.725-4.196,0.077c-1.121-0.648-1.061-1.732,0.134-2.423l44.413-25.642
					C304.746,290.608,306.625,290.573,307.747,291.22z"/>
				<path style="opacity:0.2;" d="M263.198,319.286c-1.196,0.69-3.074,0.725-4.196,0.077c-0.084-0.048-0.147-0.104-0.218-0.156
					c0.105-0.086,0.22-0.169,0.353-0.246l44.413-25.642c1.196-0.69,3.075-0.725,4.197-0.078c0.084,0.048,0.148,0.104,0.218,0.156
					c-0.105,0.086-0.219,0.169-0.352,0.246L263.198,319.286z"/>
			</g>
			<g>
				<path style="opacity:0.2;" d="M275.253,272.457c1.122,0.647,1.062,1.732-0.134,2.422l-44.415,25.643
					c-1.196,0.69-3.074,0.725-4.196,0.077c-1.121-0.648-1.061-1.733,0.135-2.423l44.413-25.642
					C272.252,271.845,274.131,271.81,275.253,272.457z"/>
				<path style="opacity:0.2;" d="M230.704,300.523c-1.196,0.69-3.074,0.725-4.196,0.077c-0.084-0.048-0.148-0.104-0.218-0.157
					c0.105-0.086,0.22-0.169,0.353-0.246l44.413-25.642c1.195-0.69,3.074-0.725,4.197-0.078c0.084,0.048,0.148,0.104,0.219,0.157
					c-0.105,0.085-0.219,0.169-0.352,0.246L230.704,300.523z"/>
			</g>
			<g>
				<path style="opacity:0.2;" d="M234.624,302.95c-1.122,0.647-1.062,1.732,0.133,2.422l15.989,9.222
					c1.196,0.69,3.074,0.725,4.196,0.077s1.061-1.732-0.135-2.423l-15.987-9.221C237.625,302.337,235.746,302.303,234.624,302.95z"
					/>
				<path style="opacity:0.2;" d="M250.746,314.595c1.196,0.69,3.074,0.725,4.196,0.077c0.084-0.048,0.148-0.104,0.218-0.156
					c-0.105-0.086-0.219-0.169-0.353-0.246l-15.987-9.221c-1.196-0.69-3.074-0.725-4.197-0.078
					c-0.084,0.048-0.148,0.104-0.219,0.156c0.105,0.086,0.219,0.169,0.352,0.246L250.746,314.595z"/>
			</g>
			<g>
				<path style="opacity:0.2;" d="M226.508,307.636c-1.122,0.647-1.062,1.732,0.134,2.422l15.989,9.222
					c1.196,0.69,3.074,0.725,4.196,0.077s1.061-1.733-0.135-2.423l-15.987-9.221C229.509,307.023,227.63,306.988,226.508,307.636z"
					/>
				<path style="opacity:0.2;" d="M242.63,319.28c1.196,0.69,3.074,0.725,4.196,0.077c0.084-0.048,0.147-0.104,0.218-0.156
					c-0.105-0.086-0.219-0.169-0.353-0.246l-15.987-9.221c-1.195-0.69-3.074-0.725-4.197-0.078
					c-0.084,0.048-0.148,0.104-0.219,0.156c0.105,0.086,0.219,0.169,0.352,0.246L242.63,319.28z"/>
			</g>
			<g>
				<path style="opacity:0.2;" d="M283.367,274.808c-1.122,0.647-1.062,1.732,0.134,2.422l15.989,9.222
					c1.196,0.69,3.074,0.725,4.196,0.077c1.121-0.648,1.061-1.732-0.134-2.423l-15.987-9.221
					C286.368,274.195,284.489,274.161,283.367,274.808z"/>
				<path style="opacity:0.2;" d="M299.489,286.453c1.196,0.69,3.074,0.725,4.196,0.077c0.084-0.048,0.148-0.104,0.218-0.156
					c-0.105-0.086-0.22-0.169-0.353-0.246l-15.987-9.221c-1.196-0.69-3.074-0.725-4.197-0.078c-0.084,0.048-0.148,0.103-0.219,0.156
					c0.105,0.086,0.219,0.169,0.352,0.246L299.489,286.453z"/>
			</g>
			<g>
				<path style="opacity:0.2;" d="M275.251,279.494c-1.122,0.647-1.062,1.732,0.134,2.422l15.989,9.222
					c1.196,0.69,3.074,0.725,4.196,0.077c1.121-0.648,1.061-1.733-0.135-2.423l-15.987-9.221
					C278.252,278.881,276.373,278.846,275.251,279.494z"/>
				<path style="opacity:0.2;" d="M291.374,291.138c1.196,0.69,3.074,0.725,4.196,0.077c0.084-0.048,0.147-0.104,0.218-0.156
					c-0.105-0.086-0.219-0.169-0.353-0.246l-15.987-9.221c-1.195-0.69-3.074-0.725-4.197-0.078
					c-0.084,0.048-0.148,0.104-0.219,0.157c0.105,0.086,0.219,0.169,0.352,0.246L291.374,291.138z"/>
			</g>
			<g>
				<path style="fill:#455A64;" d="M248.852,295.048v9.07l4.06,2.35l4.06-2.35v-6.88c0-1.38,0.97-3.06,2.16-3.75l10.02-5.79
					l1.9-1.09c1.19-0.69,2.16-0.13,2.16,1.25l0.01,6.88l4.06-2.35v-9.07c0-0.19-0.01-0.37-0.03-0.54c-0.01-0.15-0.03-0.28-0.06-0.41
					c-0.03-0.16-0.07-0.32-0.12-0.46c-0.04-0.12-0.09-0.24-0.14-0.35c-0.06-0.12-0.12-0.23-0.19-0.33c-0.07-0.11-0.14-0.2-0.22-0.29
					c-0.08-0.09-0.16-0.17-0.25-0.24c0,0,0-0.01-0.01-0.01c-0.09-0.07-0.18-0.13-0.28-0.18c-0.04-0.03-0.08-0.05-0.13-0.07
					c-0.86-0.49-3.22-1.86-3.91-2.26c-0.78-0.46-1.86-0.39-3.05,0.3l-15.71,9.07C250.781,288.928,248.852,292.288,248.852,295.048z"
					/>
				<path style="fill:#263238;" d="M269.152,287.698v0.01l0.01,4.68l4.06,2.35l-0.01-6.88c0-1.38-0.97-1.94-2.16-1.25
					L269.152,287.698z"/>
				<path style="fill:#37474F;" d="M252.912,297.388v9.08l4.06-2.35v-6.88c0-1.38,0.97-3.06,2.16-3.75l10.02-5.78v-0.01l1.9-1.09
					c1.19-0.69,2.16-0.13,2.16,1.25l0.01,6.88l4.06-2.34v-9.08c0-0.19-0.01-0.37-0.03-0.54c-0.01-0.15-0.03-0.28-0.06-0.41
					c-0.03-0.16-0.07-0.32-0.12-0.46c-0.04-0.12-0.09-0.24-0.14-0.35c-0.06-0.12-0.12-0.23-0.19-0.33c-0.07-0.11-0.14-0.2-0.22-0.29
					c-0.08-0.09-0.16-0.17-0.25-0.24c0,0,0-0.01-0.01-0.01c-0.09-0.07-0.18-0.13-0.28-0.18c-0.04-0.03-0.08-0.05-0.13-0.07
					c-0.76-0.36-1.78-0.27-2.9,0.38l-15.71,9.07C254.852,291.278,252.912,294.628,252.912,297.388z"/>
			</g>
		</g>
		<g>
			<polygon style="fill:#455A64;" points="273.22,336.952 271.716,336.086 267.655,338.43 269.158,339.297 			"/>
			<polygon style="fill:#263238;" points="269.158,339.297 267.655,358.926 267.655,338.43 			"/>
			<polygon style="fill:#37474F;" points="273.22,336.952 271.717,356.581 272.214,356.349 			"/>
		</g>
		<g>
			<polygon style="fill:#455A64;" points="239.221,340.776 240.724,339.909 244.785,342.254 243.282,343.121 			"/>
			<polygon points="239.221,340.776 240.723,360.405 240.226,360.172 			"/>
		</g>
		<g>
			<polygon style="fill:#455A64;" points="222.972,331.394 224.476,330.528 228.536,332.873 227.034,333.739 			"/>
			<g>
				<polygon style="fill:#37474F;" points="244.785,362.75 243.282,343.121 244.785,342.254 				"/>
				<polygon style="fill:#37474F;" points="228.537,332.873 228.536,353.368 227.034,333.739 				"/>
			</g>
			<polygon points="222.972,331.394 224.475,351.024 223.978,350.791 			"/>
		</g>
		<g>
			<polygon style="fill:#455A64;" points="301.653,320.536 300.15,319.67 296.089,322.014 297.591,322.881 			"/>
			<polygon style="fill:#263238;" points="297.591,322.881 296.089,342.51 296.089,322.014 			"/>
			<polygon style="fill:#37474F;" points="301.653,320.536 300.151,340.165 300.647,339.933 			"/>
		</g>
		<g>
			<polygon style="fill:#37474F;" points="265.467,333.616 265.48,328.926 273.604,324.235 274.96,325.018 274.946,329.708 
				266.823,334.399 			"/>
			<polygon style="fill:#455A64;" points="274.96,325.018 274.946,329.708 266.823,334.399 266.836,329.708 			"/>
			<polygon style="fill:#263238;" points="266.836,329.708 265.48,328.926 265.467,333.616 266.823,334.399 			"/>
		</g>
		<g>
			<polygon style="fill:#37474F;" points="294.124,317.089 294.137,312.398 302.261,307.708 303.617,308.49 303.604,313.181 
				295.48,317.871 			"/>
			<polygon style="fill:#455A64;" points="303.617,308.49 303.604,313.181 295.48,317.871 295.493,313.181 			"/>
			<polygon style="fill:#263238;" points="295.493,313.181 294.137,312.398 294.124,317.089 295.48,317.871 			"/>
		</g>
	</g>
</g>
<g id="Tools">
	<g id="Wrench">
		<path id="XMLID_28235_" style="fill:#37474F;" d="M247.385,386.757c-0.549,0.312-1.579,0.3-1.907,0.676l0,1.352l6.28-0.917
			l2.375,1.392l-0.903,1.886l-6.341-0.423l0,1.352c0.134,0.094,0.274,0.184,0.425,0.273c2.653,1.555,6.986,1.574,9.68,0.043
			c1.359-0.773,2.037-1.791,2.038-2.81l0,0l0-1.348l-0.374,0.06c-0.015-0.025-0.026-0.05-0.042-0.075l23.764-13.72
			c2.406,0.507,5.206,0.213,7.154-0.895c1.01-0.574,1.644-1.283,1.907-2.028l0-1.352l-6.281,2.27l-2.375-1.392l0.903-1.886
			l6.341-0.929l0-1.352c0,0-7.412-0.495-10.105,1.036c-0.791,0.45-1.348,0.984-1.678,1.552l-0.359-0.13l0,1.342l0.002-0.003
			c-0.01,0.478,0.126,0.957,0.413,1.412l-23.764,13.72C252.133,385.355,249.333,385.649,247.385,386.757z"/>
		<polygon id="XMLID_28216_" style="fill:#37474F;" points="282.38,374.498 282.38,373.146 258.617,386.866 258.616,388.218 		"/>
		<path id="XMLID_28215_" style="fill:#455A64;" d="M278.303,370.79l-23.764,13.72c-2.406-0.507-5.206-0.213-7.154,0.895
			c-1.01,0.574-1.644,1.283-1.907,2.028l6.28-0.917l2.375,1.392l-0.903,1.886l-6.341,0.929c0.134,0.094,0.274,0.184,0.425,0.273
			c2.653,1.555,6.986,1.574,9.68,0.043c1.974-1.123,2.512-2.763,1.622-4.172l23.764-13.72c2.406,0.507,5.206,0.213,7.154-0.895
			c1.01-0.574,1.644-1.283,1.907-2.028l-6.28,0.917l-2.375-1.392l0.902-1.886l6.341-0.929c-0.134-0.094-0.274-0.185-0.425-0.273
			c-2.653-1.555-6.986-1.574-9.68-0.043C277.951,367.74,277.413,369.381,278.303,370.79z"/>
		<polygon id="XMLID_28214_" style="fill:#263238;" points="283.292,370.044 282.786,369.748 283.689,367.862 290.03,366.933 
			290.03,368.286 283.689,369.214 		"/>
		<polygon style="fill:#263238;" points="253.628,388.963 254.133,387.907 251.759,386.515 245.479,387.432 245.478,388.785 
			251.758,387.867 		"/>
	</g>
	<g id="Screwdriver">
		<path id="XMLID_28213_" style="fill:#BA68C8;" d="M261.926,406.722l4.966,8.601l16.756-9.674c0.688-0.343,1.121-1.146,1.121-2.319
			c0-2.241-1.573-4.966-3.514-6.087c-0.971-0.561-1.851-0.613-2.487-0.245v0L261.926,406.722z"/>
		<path id="XMLID_28212_" style="fill:#BA68C8;" d="M260.927,408.505l-0.002-0.004c-0.073,1.31-1.928,1.592-1.928,1.592l3.514,6.087
			c0,0,1.171-1.444,2.343-0.873l-0.002-0.004c1.732,0.749,3.073-0.18,3.073-2.248c0-2.241-1.573-4.966-3.514-6.087
			C262.62,405.934,261.145,406.63,260.927,408.505z"/>
		<path id="XMLID_28211_" style="opacity:0.05;" d="M260.927,408.505l-0.002-0.004c-0.073,1.31-1.928,1.592-1.928,1.592l3.514,6.087
			c0,0,1.171-1.444,2.343-0.873l-0.002-0.004c1.732,0.749,3.073-0.18,3.073-2.248c0-2.241-1.573-4.966-3.514-6.087
			C262.62,405.934,261.145,406.63,260.927,408.505z"/>
		<path id="XMLID_28210_" style="opacity:0.05;" d="M259.839,409.832c-0.438,0.198-0.841,0.261-0.841,0.261l3.514,6.087
			c0,0,0.257-0.314,0.647-0.591C263.068,413.464,261.634,410.976,259.839,409.832z"/>
		<path id="XMLID_28209_" style="fill:#BA68C8;" d="M255.341,410.523l0.294,0.509c-0.098,0.316-0.152,0.68-0.152,1.09
			c0,2.241,1.573,4.966,3.514,6.087c0.355,0.205,0.697,0.34,1.02,0.414l0.294,0.509l1.171-0.676l0,0
			c0.636-0.367,1.029-1.154,1.029-2.275c0-2.241-1.573-4.966-3.514-6.087c-0.971-0.56-1.849-0.613-2.485-0.246l0,0L255.341,410.523z
			"/>
		<g id="XMLID_28206_">
			<path id="XMLID_28208_" style="fill:#BA68C8;" d="M261.34,416.857c0-2.241-1.574-4.966-3.514-6.087
				c-1.941-1.12-3.514-0.212-3.514,2.029c0,2.241,1.573,4.966,3.514,6.087S261.34,419.098,261.34,416.857z"/>
			<path id="XMLID_28207_" style="opacity:0.15;" d="M261.34,416.857c0-2.241-1.574-4.966-3.514-6.087
				c-1.941-1.12-3.514-0.212-3.514,2.029c0,2.241,1.573,4.966,3.514,6.087S261.34,419.098,261.34,416.857z"/>
			<path style="opacity:0.15;" d="M256.456,417.775c0.274,0.292,0.567,0.552,0.872,0.778l0.823-2.346l-0.992-0.731L256.456,417.775z
				"/>
		</g>
		<path id="XMLID_28205_" style="opacity:0.2;" d="M281.909,400.92L281.909,400.92c0.268,0.463,0.109,1.056-0.355,1.323
			l-11.969,6.91c-0.463,0.268-1.056,0.109-1.323-0.354l0,0c-0.267-0.463-0.109-1.056,0.355-1.323l11.969-6.91
			C281.05,400.298,281.642,400.457,281.909,400.92z"/>
		<path id="XMLID_28203_" style="opacity:0.2;" d="M279.75,398.346L279.75,398.346c0.378,0.317,0.358,0.762-0.043,0.993
			l-12.194,7.04c-0.401,0.232-1.033,0.163-1.41-0.155l0,0c-0.378-0.317-0.359-0.762,0.043-0.993l12.194-7.04
			C278.741,397.96,279.372,398.029,279.75,398.346z"/>
		<path id="XMLID_28202_" style="opacity:0.2;" d="M283.059,404.077L283.059,404.077c-0.086-0.486-0.48-0.691-0.882-0.46
			l-12.194,7.04c-0.401,0.232-0.657,0.813-0.571,1.299l0,0c0.086,0.486,0.48,0.691,0.881,0.46l12.194-7.04
			C282.889,405.144,283.144,404.563,283.059,404.077z"/>
		<g id="XMLID_28195_">
			<path id="XMLID_28199_" style="fill:#455A64;" d="M227.009,431.052v2.343l5.857-1.905c0,0,1.171-2.153,2.343-2.83l22.257-12.85
				l0.686-1.946l-0.686-0.397l-22.257,12.85c-1.171,0.676-2.343-0.124-2.343-0.124L227.009,431.052z"/>
			<path id="XMLID_28198_" style="fill:#37474F;" d="M227.695,431.449v2.343l5.857-1.905c0,0,1.171-2.153,2.343-2.83l22.257-12.85
				v-2.343l-22.257,12.85c-1.171,0.676-2.343-0.124-2.343-0.124L227.695,431.449z"/>
			<polygon id="XMLID_28197_" style="fill:#263238;" points="227.695,433.792 227.009,433.395 227.009,431.052 227.695,431.449 			
				"/>
			<polygon id="XMLID_28196_" style="fill:#455A64;" points="227.009,431.052 227.695,431.449 233.552,426.59 232.866,426.193 			
				"/>
		</g>
	</g>
</g>
<g id="Character">
	<g id="Character_30_">
		<g id="Top_32_">
			<g>
				<path style="fill:#37474F;" d="M310.427,129.944h-51.539c-0.414,0-0.75-0.336-0.75-0.75c0-0.414,0.336-0.75,0.75-0.75h51.539
					c0.414,0,0.75,0.336,0.75,0.75C311.177,129.608,310.841,129.944,310.427,129.944z"/>
			</g>
			<g id="Arm_3_">
				<path style="fill:#FFA8A7;" d="M192.035,163.268c-4.958-9.444-12.944-29.867-12.944-29.867l0.172-27.409
					c-0.199,0.019,3.694,1.182,4.888,1.458c7.721,2.854,9.847,4.211,13.162,11.024c2.632,5.409,11.488,30.077,14.634,38.422
					l18.854-13.401c4.749-3.998,5.859-9.708,8.76-13.257c2.902-3.549,6.184-4.525,9.471-7.539c3.287-3.014,4.518-5.244,5.778-2.842
					c1.259,2.401-2.322,6.839-2.936,7.911c-0.435,0.76-1.528,1.322-1.772,2.176c-0.414,1.452,1.754,1.228,2.691,1.025
					c4.599-0.997,8.773-4.877,11.616-8.431c1.108-1.385,5.16-6.791,6.191-2.429c0.839,3.55-2.077,5.825-2.29,9.094
					c-0.131,2.009-0.561,3.42-1.396,5.196c-0.696,1.481-0.373,3.205-0.859,4.755c-1.512,4.816-5.346,6.472-9.795,7.974
					c-4.33,1.462-9.26,2.589-12.945,5.427c-4.482,3.452-15.318,15.115-21.905,22.124c-8.372,8.91-13.889,11.031-18.784,5.752
					C197.73,175.15,193.873,166.77,192.035,163.268z"/>
				<path style="fill:#455A64;" d="M270.599,120.108c-1.032-4.362-5.083,1.044-6.191,2.429c-2.842,3.554-7.017,7.434-11.616,8.431
					c-0.937,0.203-3.105,0.427-2.69-1.025c0.244-0.854,1.337-1.416,1.772-2.176c0.614-1.072,4.195-5.51,2.936-7.911
					c-1.259-2.402-2.491-0.172-5.778,2.842c-3.287,3.014-6.569,3.99-9.471,7.539c-2.902,3.549-4.011,9.258-8.76,13.257l-1.295,0.921
					c0.781,5.263,4.019,10.421,8.675,12.796c2.06-2.015,3.859-3.675,5.134-4.657c3.685-2.838,8.615-3.965,12.945-5.427
					c4.449-1.502,8.283-3.158,9.795-7.974c0.487-1.55,0.163-3.274,0.86-4.755c0.835-1.776,1.265-3.187,1.396-5.196
					C268.522,125.933,271.439,123.657,270.599,120.108z"/>
				<g>
					<path style="fill:#BA68C8;" d="M231.772,142.602c-0.088,1.743,0.881,6.374,3.089,8.85s5.331,3.715,5.331,3.715l0.794-0.623
						c0,0,0.768,0.085-1.279,2.131c-2.046,2.046-2.518,2.813-3.655,2.645c-1.137-0.168-4.365-2.053-6.547-5.391
						c-2.182-3.338-2.775-7-2.721-7.969c0.054-0.969,1.457-1.723,2.721-2.638c1.264-0.915,2.594-2.454,3.302-1.846L231.772,142.602z
						"/>
					<path style="opacity:0.2;" d="M231.772,142.602c-0.088,1.743,0.881,6.374,3.089,8.85s5.331,3.715,5.331,3.715l0.794-0.623
						c0,0,0.768,0.085-1.279,2.131c-2.046,2.046-2.518,2.813-3.655,2.645c-1.137-0.168-4.365-2.053-6.547-5.391
						c-2.182-3.338-2.775-7-2.721-7.969c0.054-0.969,1.457-1.723,2.721-2.638c1.264-0.915,2.594-2.454,3.302-1.846L231.772,142.602z
						"/>
				</g>
				<path style="fill:#E0E0E0;" d="M181.657,106.44c5.054,1.173,9.029,3.078,11.401,5.125c3.707,3.198,5.39,8.183,7.908,15.018
					c2.518,6.836,9.015,23.395,9.015,23.395s-11.326,2.975-17.998,14.114l-17.161-35.71L181.657,106.44z"/>
				<path style="fill:#F28F8F;" d="M211.947,156.895c-4.275,2.21-6.856,5.762-7.69,7.724c0,0-0.045-5.507,6.971-9.632
					L211.947,156.895z"/>
			</g>
			<g id="Chest_9_">
				<path id="XMLID_10830_" style="fill:#FAFAFA;" d="M123.619,109.318c0,0-5.867,5.161-7.366,10.738
					c-0.737,2.742-1.416,5.031,0.905,20.247c2.216,14.53,3.787,14.525,4.909,25.603l-1.621,27.733
					c8.693,10.18,49.279,15.364,69.576,1.651c0,0,0.879-42.096-0.556-59.444c-0.975-11.782-5.946-23.879-7.809-29.406
					c-5.517-0.958-10.824-1.599-10.824-1.599l-20.299-1.181L123.619,109.318z"/>
			</g>
			<g id="Head_14_">
				<g>
					<g id="XMLID_10821_">
						<g id="XMLID_10828_">
							<path style="fill:#37474F;" d="M180.385,67.757c2.669-6.12,0.056-14.236-3.133-18.047c-4.61-5.511-11.783-7.887-22.597-7.216
								c-8.223,0.51-16.311,3.926-17.85,12.365c-6.609,1.971-5.856,12.826-4.212,17.613c3.336,9.716,9.896,18.172,10.008,23.141
								L180.385,67.757z"/>
							<path style="fill:#FFA8A7;" d="M180.381,90.614c-1.299,4.691-4.017,8.129-8.352,8.806c-2.593,0.411-6.851,0.037-6.851,0.037
								l0.171,5.973c8.946,11.389-12.061,13.704-22.459,1.216l-0.617-20.169c0,0-2.655,3.015-7.033,0.165
								c-2.999-1.966-5.154-7.029-2.97-11.689c2.166-4.577,6.51-2.683,7.85-1.295c1.329,1.388,2.892,4.006,4.005,3.64
								c1.694-0.564,2.256-1.627,2.692-2.748c0.777-1.963,1.335-4.496,1.417-8.87c1.21-0.615,2.372-1.496,3.395-2.621
								c1.865-2.07,2.867-4.532,2.947-6.787c9.375-2.936,20.157-1.553,24.055,1.462c2.243,3.949,2.324,13.134,2.695,18.423
								C181.73,81.9,181.472,86.69,180.381,90.614z"/>
							<path style="fill:#F28F8F;" d="M165.178,99.454c-4.798-0.27-14.447-2.51-17.018-5.189c-2.571-2.679-3.663-8.156-3.663-8.156
								s0.386,6.921,2.372,9.974c1.986,3.053,7.007,4.385,10.055,5.143c3.047,0.758,8.343,1.266,8.343,1.266L165.178,99.454z"/>
						</g>
						<g id="XMLID_10822_">
							<path id="XMLID_10827_" style="fill:#263238;" d="M162.144,73.089c0.003,1.113-0.862,2.015-1.933,2.016
								c-1.071,0.001-1.942-0.901-1.946-2.014c-0.003-1.113,0.862-2.015,1.933-2.016C161.269,71.075,162.14,71.977,162.144,73.089z"
								/>
							<path id="XMLID_10826_" style="fill:#263238;" d="M159.429,66.886l-3.928,2.651c-0.716-1.132-0.417-2.644,0.668-3.376
								C157.254,65.429,158.713,65.753,159.429,66.886z"/>
							<path id="XMLID_10825_" style="fill:#263238;" d="M178.495,68.133l-4.308-2.06c0.528-1.221,1.921-1.749,3.111-1.18
								C178.488,65.462,179.024,66.912,178.495,68.133z"/>
							<path id="XMLID_10824_" style="fill:#263238;" d="M177.044,72.396c0.004,1.113-0.862,2.015-1.933,2.015
								c-1.071,0-1.942-0.901-1.946-2.014c-0.004-1.113,0.862-2.015,1.933-2.016C176.17,70.381,177.041,71.283,177.044,72.396z"/>
							<polygon id="XMLID_10823_" style="fill:#F28F8F;" points="166.599,68.916 168.001,82.862 175.485,80.604 							"/>
						</g>
					</g>
				</g>
				<path id="XMLID_10820_" style="fill:#B16668;" d="M162.132,86.11l8.028,1.776c-0.443,2.291-2.6,3.752-4.818,3.262
					C163.126,90.657,161.688,88.402,162.132,86.11z"/>
				<path style="fill:#F28F8F;" d="M165.342,91.148c0.169,0.037,0.335,0.042,0.502,0.057c-0.051-2.026-1.707-3.639-3.732-3.639
					C162.36,89.288,163.603,90.763,165.342,91.148z"/>
			</g>
			<g id="Helmet">
				<path style="fill:#BA68C8;" d="M131.042,66.885c0.24,2.512,0.834,4.903,1.736,7.137c0.537-0.674,1.14-1.333,1.766-1.973
					c3.366-3.437,7.665-6.318,12.434-8.558l0.021-0.002c10.691-4.997,23.782-6.68,34.263-3.774c-0.395-2.11-1.061-4.13-1.949-5.999
					c-4.409-9.48-14.423-15.588-25.406-14.536C139.923,40.518,129.705,52.923,131.042,66.885z"/>
				<path style="fill:#BA68C8;" d="M142.006,41.629c1.273-0.616,7.669-2.529,8.181-2.685c3.316-1.008,8.639-0.942,14.112,3.558
					c7.088,5.83,8.562,13.829,8.562,13.829l-6.798,2.133l-2.171,0.208c-0.8-4.993-7.395-15.767-16.647-16.17
					c-0.432-0.023-0.862-0.025-1.309,0.018c-1.156,0.046-2.357,0.29-3.581,0.729c0,0-2.476,1.741-3.591,2.878
					C138.763,46.128,138.944,43.082,142.006,41.629z"/>
				<path style="opacity:0.45;fill:#FFFFFF;" d="M142.006,41.629c1.273-0.616,7.669-2.529,8.181-2.685
					c3.316-1.008,8.639-0.942,14.112,3.558c7.088,5.83,8.562,13.829,8.562,13.829l-6.798,2.133l-2.171,0.208
					c-0.8-4.993-7.395-15.767-16.647-16.17c-0.432-0.023-0.862-0.025-1.309,0.018c-1.156,0.046-2.357,0.29-3.581,0.729
					c0,0-2.476,1.741-3.591,2.878C138.763,46.128,138.944,43.082,142.006,41.629z"/>
				<path style="fill:#BA68C8;" d="M163.896,58.676c-0.946-5.811-9.812-19.584-21.535-15.436c0,0-2.492,1.746-3.605,2.878
					c0,0,0.197-3.033,3.251-4.494c3.054-1.461,9.169-2.185,15.5,3.02c7.084,5.825,8.55,13.824,8.55,13.824L163.896,58.676z"/>
				<path style="opacity:0.3;" d="M163.896,58.676c-0.946-5.811-9.812-19.584-21.535-15.436c0,0-2.492,1.746-3.605,2.878
					c0,0,0.197-3.033,3.251-4.494c3.054-1.461,9.169-2.185,15.5,3.02c7.084,5.825,8.55,13.824,8.55,13.824L163.896,58.676z"/>
				<path style="fill:#BA68C8;" d="M146.807,61.493c0.495-0.434,2.86-5.535,11.305-10.042c5.212-2.781,15.892-2.92,20.682-2.841
					c8.387,0.137,10.39,1.922,10.495,3.157c0.025,0.293,0.142,1.65,0.181,1.958c0.039,0.308-0.041,0.584-0.175,0.794
					c-1.257,1.903-8.033,5.196-8.033,5.196c-10.481-2.906-23.572-1.223-34.263,3.774L146.807,61.493z"/>
				<path style="opacity:0.15;" d="M146.807,61.493c0.495-0.434,2.86-5.535,11.305-10.042c5.212-2.781,15.892-2.92,20.682-2.841
					c8.387,0.137,10.39,1.922,10.495,3.157c0.025,0.293,0.142,1.65,0.181,1.958c0.039,0.308-0.041,0.584-0.175,0.794
					c-1.257,1.903-8.033,5.196-8.033,5.196c-10.481-2.906-23.572-1.223-34.263,3.774L146.807,61.493z"/>
				<path style="fill:#BA68C8;" d="M146.998,63.489c10.691-4.997,23.782-6.68,34.263-3.774c0,0,6.775-3.293,8.033-5.196
					c0.672-1.053,0.066-3.743-10.309-3.913c-4.79-0.078-15.471,0.06-20.682,2.841C149.858,57.954,147.494,63.055,146.998,63.489z"/>
				<path style="opacity:0.3;" d="M146.998,63.489c10.691-4.997,23.782-6.68,34.263-3.774c0,0,6.775-3.293,8.033-5.196
					c0.672-1.053,0.066-3.743-10.309-3.913c-4.79-0.078-15.471,0.06-20.682,2.841C149.858,57.954,147.494,63.055,146.998,63.489z"/>
			</g>
		</g>
		<g id="Bottom">
			<g>
				<g id="XMLID_10840_">
					<path id="XMLID_10841_" style="fill:#FFA8A7;" d="M179.287,369.936c0.326-5.306,3.172-58.8,3.172-58.8l-25.973,18.335
						c4.538,30.578,5.533,39.794,5.727,44.896l0,0c-0.04,0.119-0.141,0.554-0.12,1.309c0.139,6.06,7.395,9.225,13.084,13.184
						c2.247,1.564,8.784,6.183,15.358,9.202c4.115,1.889,12.398,1.948,13.377-0.561c-6.924-4.859-14.932-10.163-20.471-15.746
						C180.796,379.09,178.896,376.302,179.287,369.936z"/>
				</g>
				<g>
					<path style="fill:#263238;" d="M215.679,403.857c0.35-0.005,0.948,3.656-0.924,5.243c-2.161,1.831-8.55,4.879-17.085,3.954
						c-8.535-0.926-13.194-3.364-16.652-6.027c-3.459-2.662-8.307-6.418-12.174-7.171c-3.592-0.699-7.507-2.185-8.672-3.22
						c-1.165-1.035-1.094-5.712-1.094-5.712L215.679,403.857z"/>
					<path id="XMLID_10838_" style="fill:#37474F;" d="M189.075,383.767c-0.557-0.516-1.1-1.044-1.626-1.577
						c-1.872-1.897-3.084-4.262-4.073-6.71c-0.486-1.203-1.049-2.426-1.279-3.703c-0.264-1.47-0.439-2.956-0.688-4.428
						c-0.093-0.552-0.039-1.755-0.681-1.995c-0.626-0.234-1.753,0.195-2.299,0.428c-1.734,0.741-3.539,1.313-5.317,1.943
						c-0.961,0.34-3.049,0.884-3.352,1.989c-0.319,1.161,0.204,2.488-0.036,3.686c-0.093,0.467-0.293,0.966-0.849,0.941
						c-0.951-0.043-1.249-1.445-1.509-2.138c-0.555-1.476-1.011-2.167-2.588-2.598c-0.828-0.226-2.444-0.336-2.995-1.072
						l-0.212-2.03c0,0-1.441,0.225-2.112,1.633c-0.684,1.436-0.227,3.422,0.012,4.946c0.243,1.553,0.449,2.984,0.38,4.576
						c-0.057,1.315-0.386,2.612-0.631,3.898c-0.433,2.264-0.632,4.502-0.632,6.807c0,1.065,0.039,2.11,0.245,3.157
						c0.195,0.99,0.566,1.471,1.337,2.161c1.089,0.974,2.265,1.63,3.654,2.183c1.829,0.728,3.717,1.291,5.576,1.933
						c3.833,1.324,8.29,4.103,12.214,7.078c4.06,3.079,12.538,6.106,18.089,6.104c8.475-0.003,14.397-2.801,16.037-5.72
						c0.152-1.974,0.271-4.016-0.64-5.422c-2.967-4.578-9.568-6.055-14.855-8.582c-2.312-1.105-4.529-2.521-6.664-3.917
						C191.991,386.3,190.484,385.071,189.075,383.767z"/>
					<path style="fill:#455A64;" d="M203.476,392.656c-10.385,2.948-13.983,9.959-15.526,15.62
						c3.896,1.576,8.366,2.704,11.751,2.703c8.475-0.003,14.397-2.801,16.037-5.72c0.152-1.974,0.271-4.016-0.64-5.422
						C212.714,396.159,207.985,394.483,203.476,392.656z"/>
					<path style="fill:#455A64;" d="M169.399,397.797c0.145,0.05,0.296,0.116,0.442,0.17c-0.416-8.041-3.706-13.296-10.944-14.363
						c-0.205,1.575-0.309,3.15-0.309,4.759c0,1.065,0.039,2.11,0.245,3.157c0.195,0.99,0.566,1.471,1.337,2.161
						c1.089,0.974,2.265,1.63,3.654,2.183C165.652,396.591,167.54,397.155,169.399,397.797z"/>
				</g>
			</g>
			<g>
				<g id="XMLID_10836_">
					<path id="XMLID_10837_" style="fill:#FFA8A7;" d="M136.449,326.893l-27.094-5.858c-0.714,16.774-0.282,39.465-0.856,55.208
						c-0.108,2.964-1.644,22.987-0.792,29.14c1.281,9.244,13.673,8.642,14.697,3.202c1.025-5.44,1.921-28.69,2.124-31.1
						c0.576-10.086,6.33-27.038,10.367-44.989C135.093,331.614,136.259,327.753,136.449,326.893z"/>
				</g>
				<g>
					<path style="fill:#263238;" d="M126.783,412.633c-0.108,5.389-0.891,8.987-2.909,12.22c-2.018,3.232-6.052,4.373-10.226,3.604
						c-4.174-0.77-9.579-3.041-10.976-7.634c-1.397-4.593-1.304-7.78-0.594-12.799L126.783,412.633z"/>
					<path id="XMLID_10834_" style="fill:#37474F;" d="M108.722,366.926c-1.697,0.181-2.033,14.81-2.683,22.072
						c-0.696,7.785-3.172,11.086-3.82,17.471c-0.741,7.296-0.16,10.521,2.924,14.801c3.083,4.281,13.486,8.206,18.227,1.736
						c3.865-5.274,3.773-10.961,3.067-18.192c-0.73-7.475-0.758-19.454-0.672-25.151c0.082-5.445,1.734-11.194,0.227-11.744
						c-0.326,1.462-0.522,2.711-0.691,3.485c-0.377,1.728-0.778,3.802-1.301,3.416c0,0,0.144-1.527,0.164-2.236
						c0.018-0.616,0.176-1.155-0.299-1.607c-0.479-0.455-2.508-0.729-3.204-0.824c-1.689-0.23-3.386-0.43-5.094-0.502
						c-0.851-0.036-1.703-0.04-2.554,0c-0.69,0.033-1.501,0.114-2.145,0.352c-0.395,0.146-0.755,0.412-0.888,0.771
						c-0.098,0.266-0.064,0.553-0.051,0.832c0.023,0.502-0.026,1.006-0.145,1.497c-0.053,0.216-0.208,0.484-0.454,0.441
						c-0.2-0.035-0.402-0.176-0.471-0.671c-0.12-0.868-0.165-1.944-0.165-2.964c0-0.471,0.057-1.116,0.043-1.589
						C108.725,367.856,108.708,367.391,108.722,366.926z"/>
					<path style="fill:#455A64;" d="M101.94,410.691c-0.087,4.516,0.346,7.591,2.76,10.942c3.084,4.281,14.309,8.189,19.049,1.72
						c2.359-3.219,2.86-6.94,3.031-10.724C123.544,407.898,106.505,406.393,101.94,410.691z"/>
				</g>
			</g>
			<g>
				<path style="fill:#455A64;" d="M191.122,147.78c0,0-20.575,4.632-51.414,2.514c0.001,20.378,2.155,43.755-7.603,43.622
					l-11.659-0.277c-0.642,30.518-5.807,94.156-5.807,94.156c-0.461,3.748-5.887,19.69-6.086,33.246
					c-0.313,21.274-0.767,37.386-0.767,37.386s11.884,4.705,20.613,1.449c0,0,11.356-45.217,14.539-59.329
					c3.791-16.807,11.626-47.867,11.626-47.867l0.942,44.23c0,0-1.896,13.702-0.357,26.857c1.049,8.961,4.648,33.912,4.648,33.912
					s10.939,2.203,20.417-0.605c0,0,5.71-53.578,6.18-61.823c0.511-8.96,3.345-91.668,3.609-99.384
					c0.006-0.002,0.013-0.003,0.02-0.005C192.602,157.01,191.122,147.78,191.122,147.78z"/>
				<path style="fill:#455A64;" d="M139.708,150.294c-1.433-18.468-1.393-33.637-8.322-42.609l8.843-1.859
					c0,0,7.653,16.948,7.654,45.091L139.708,150.294z"/>
				<path style="fill:#455A64;" d="M182.997,149.805c-0.001-20.103-4.432-37.346-11.448-44.874l10.107,1.509
					c0,0,9.464,15.222,9.465,43.365H182.997z"/>
				<path style="fill:#37474F;" d="M150.823,154.506c0,0,16.248,1.036,29.896-1.588l0.617,13.827l-13.618,8.542l-16.894-5.517
					V154.506z"/>
			</g>
			<g>
				<path style="fill:#BA68C8;" d="M124.654,194.651c7.821,3.249,26.84,5.204,42.095,5.041c15.256-0.163,23.272-3.83,23.272-3.83
					l-0.248,9.302c0,0-27.086,11.354-66.267-1.988L124.654,194.651z"/>
				<path style="opacity:0.3;" d="M124.654,194.651c7.821,3.249,26.84,5.204,42.095,5.041c15.256-0.163,23.272-3.83,23.272-3.83
					l-0.248,9.302c0,0-27.086,11.354-66.267-1.988L124.654,194.651z"/>
			</g>
			<path style="fill:#37474F;" d="M154.564,252.68l7.254-29.341c0,0,10.884,0.141,17.989-6.509c0,0-0.959,7.49-13.927,11.494
				l-6.723,23.305l-3.804,44.449L154.564,252.68z"/>
			<g>
				<path style="fill:#BA68C8;" d="M142.99,104.577l0.06,1.959c0,0,1.924,4.841,3.39,13.674c2.103,12.674,2.464,29.281,2.464,48.042
					s0.001,51.577,0.001,51.577s-23.454,1.498-30.899-16.399l3.027-37.523c0,0-4.303-19.393-5.475-30.488
					c-1.172-11.095-3.261-18.862,7.117-27.334L142.99,104.577z"/>
				<g>
					<path style="fill:#F0F0F0;" d="M118.852,155.423c1.172,5.941,2.18,10.484,2.18,10.484l-0.113,1.474
						c7.253,4.742,18.056,7.778,27.985,7.324c0-2.271,0-4.446,0-6.453c0-1.356-0.003-2.698-0.007-4.031
						C137.975,164.718,125.999,160.994,118.852,155.423z"/>
					<path style="fill:#F0F0F0;" d="M148.903,195.518c0-3.426,0-6.974,0-10.484c-10.281,0.47-21.497-2.804-28.741-7.837
						l-0.765,9.934C126.599,192.473,138.252,196.005,148.903,195.518z"/>
				</g>
			</g>
			<g>
				<path style="fill:#BA68C8;" d="M165.724,104.339c0,0,10.057,5.311,13.211,17.737c3.154,12.426,3.628,22.222,4.063,38.177
					c0.435,15.955-0.212,60.45-0.212,60.45s7.037-3.072,8.548-6.403c0,0,1.975-56.512-0.212-76.536
					c-2.186-20.024-9.464-31.324-9.464-31.324S176.478,104.32,165.724,104.339z"/>
				<g>
					<path style="fill:#F0F0F0;" d="M183.168,172.686c3.019-0.077,6.072-0.45,9.045-1.074c0.009-3.498-0.003-7.025-0.044-10.472
						c-3.001,0.626-6.082,0.992-9.126,1.061C183.107,165.216,183.147,168.81,183.168,172.686z"/>
					<path style="fill:#F0F0F0;" d="M191.956,192.483c0.067-3.218,0.13-6.778,0.177-10.523c-2.941,0.612-5.958,0.976-8.943,1.053
						c-0.003,3.545-0.014,7.102-0.031,10.484C186.094,193.423,189.061,193.075,191.956,192.483z"/>
				</g>
			</g>
		</g>
		<g id="Hand_with_bulb">
			<g>
				<path style="fill:#FFA8A7;" d="M127.889,108.285c-6.008-0.008-12.981-0.254-16.925,8.405
					c-1.281,2.819-5.236,19.398-9.625,34.689c-7.856-10.004-14.57-20.248-15.438-22.069c-2.332-4.873-2.363-8.164-4.742-13.192
					c-2.37-5.021-2.895-7.714-3.154-8.64c-0.563-2.017-2.341-0.528-2.966,0.372c-1.05,1.512-1.657,3.335-1.69,5.178
					c-0.023,1.304-0.016,2.628-0.102,3.914c-0.076,1.147-0.529,1.226-1.572,0.644c-2.138-1.192-3.955-3.267-5.736-4.926
					c-1.917-1.786-4.122-3.219-6.002-5.022c-1.749-1.677-2.829-3.588-4.36-5.389c-1.15-1.353-3.112-3.098-4.617-1.166
					c-0.906,1.162-0.071,2.53,0.331,3.693c0.461,1.333,0.011,2.315-0.255,3.618c-0.286,1.402-0.55,3.028,0.126,4.359
					c0.712,1.401,1.36,2.276,1.17,3.939c-0.157,1.369-0.649,2.674-0.448,4.083c0.166,1.168,1.029,2.026,1.581,3.039
					c1.063,1.953,2.276,3.242,3.775,4.827c1.81,1.914,3.529,3.198,5.626,4.829c4.814,3.744,6.6,4.913,8.208,6.155
					c2.412,1.864,4.903,6.635,6.308,9.263c2.731,5.108,8.583,19.489,16.475,29.781c4.546,5.928,10.739,7.824,16.197,1.117
					c2.86-3.515,5.291-9.1,6.873-13.316c6.067-16.169,10.465-29.498,10.465-29.498S132.292,121.885,127.889,108.285z"/>
				<path style="fill:#455A64;" d="M88.811,134.024c-1.557-2.362-2.604-4.07-2.911-4.713c-2.332-4.873-2.363-8.164-4.742-13.192
					c-2.37-5.021-2.895-7.714-3.154-8.639c-0.563-2.017-2.341-0.528-2.966,0.372c-1.05,1.512-1.657,3.335-1.69,5.178
					c-0.023,1.304-0.016,2.628-0.101,3.914c-0.076,1.147-0.529,1.226-1.573,0.644c-2.138-1.192-3.955-3.267-5.736-4.926
					c-1.917-1.786-4.122-3.219-6.002-5.022c-1.748-1.677-2.829-3.588-4.36-5.389c-1.15-1.353-3.112-3.098-4.617-1.166
					c-0.905,1.162-0.071,2.53,0.331,3.693c0.461,1.333,0.011,2.315-0.255,3.618c-0.286,1.403-0.55,3.028,0.126,4.359
					c0.712,1.401,1.36,2.276,1.17,3.939c-0.156,1.369-0.649,2.674-0.448,4.083c0.166,1.168,1.029,2.026,1.581,3.039
					c1.063,1.953,2.276,3.242,3.775,4.827c1.81,1.914,3.529,3.198,5.626,4.829c4.814,3.744,6.6,4.913,8.208,6.156
					c2.291,1.77,4.651,6.16,6.087,8.849C81.944,145.356,86.274,139.476,88.811,134.024z"/>
				<g>
					<path style="fill:#BA68C8;" d="M87.288,131.666l-0.75-1.118c0,0,0.304-1.31,1.518,0.559c1.214,1.869,2.681,4.247,2.833,4.955
						s-1.062,6.83-4.857,9.865c-3.794,3.035-7.147,3.952-8.202,3.823s-1.359-1.091-1.966-2.356
						c-0.607-1.265-2.125-2.833-1.669-4.047l0.86,1.214c0,0,5.413-1.214,8.752-5.464C87.146,134.848,87.288,131.666,87.288,131.666z
						"/>
					<path style="opacity:0.2;" d="M87.288,131.666l-0.75-1.118c0,0,0.304-1.31,1.518,0.559c1.214,1.869,2.681,4.247,2.833,4.955
						s-1.062,6.83-4.857,9.865c-3.794,3.035-7.147,3.952-8.202,3.823s-1.359-1.091-1.966-2.356
						c-0.607-1.265-2.125-2.833-1.669-4.047l0.86,1.214c0,0,5.413-1.214,8.752-5.464C87.146,134.848,87.288,131.666,87.288,131.666z
						"/>
				</g>
				<path style="fill:#F28F8F;" d="M101.339,151.38c3.405,6.085,5.051,14.255,5.115,17.55c1.005-9.113-1.769-17.444-4.333-20.25
					L101.339,151.38z"/>
				<path style="fill:#EBEBEB;" d="M128.883,107.012c-5.723,0.895-6.938,1.008-10.592,2.258c-3.653,1.25-6.274,2.506-9.639,13.502
					c-3.242,10.597-6.264,22.655-6.264,22.655s3.203,8.382,18.966,9.995l8.37-23.339
					C129.726,132.085,132.342,118.038,128.883,107.012z"/>
			</g>
			<g>
				<g id="Light_2_">
					<g id="XMLID_309_">
						<g id="XMLID_316_">
							<g id="XMLID_983_">
								<path id="XMLID_984_" style="fill:#263238;" d="M72.674,119.871c0.214,1.757-1.037,3.356-2.794,3.57
									c-1.757,0.214-3.355-1.037-3.57-2.794c-0.214-1.757,1.037-3.356,2.794-3.57C70.862,116.863,72.46,118.114,72.674,119.871z"
									/>
							</g>
							<g>
								<path style="fill:#37474F;" d="M255.719,129.944h-3.542c-1.898,0-3.436,1.538-3.436,3.436v37.42
									c0,9.369-7.595,16.964-16.964,16.964H85.706c-9.369,0-16.964-7.595-16.964-16.964v-48.723c0-0.414,0.336-0.75,0.75-0.75
									c0.414,0,0.75,0.336,0.75,0.75v48.369c0,8.736,7.082,15.818,15.818,15.818h145.362c8.736,0,15.818-7.082,15.818-15.818
									V133.38c0-2.726,2.21-4.936,4.936-4.936h6.09C257.457,129.013,256.607,129.513,255.719,129.944z"/>
							</g>
							<g id="XMLID_949_">
								<path id="XMLID_961_" style="fill:#37474F;" d="M65.702,120.933c-2.255-0.96-2.495-2.932-0.537-4.405
									c1.959-1.473,5.375-1.889,7.63-0.929c2.255,0.96,2.495,2.932,0.537,4.405C71.373,121.476,67.957,121.892,65.702,120.933z"/>
							</g>
							<g id="XMLID_400_">
								<path id="XMLID_404_" style="fill:#263238;" d="M65.445,119.798c-2.324-0.989-2.572-3.022-0.553-4.541
									c2.019-1.518,5.54-1.947,7.865-0.958c2.325,0.989,2.572,3.022,0.553,4.541C71.29,120.358,67.769,120.787,65.445,119.798z"/>
							</g>
							<g id="XMLID_397_">
								<path id="XMLID_399_" style="fill:#37474F;" d="M65.18,118.628c-2.396-1.02-2.651-3.115-0.57-4.68
									c2.081-1.565,5.71-2.007,8.106-0.987c2.396,1.02,2.651,3.115,0.57,4.68C71.205,119.206,67.576,119.648,65.18,118.628z"/>
							</g>
							<g id="XMLID_379_">
								<path id="XMLID_393_" style="fill:#263238;" d="M64.907,117.424c-2.469-1.051-2.732-3.211-0.588-4.824
									c2.145-1.613,5.886-2.069,8.355-1.018c2.469,1.051,2.733,3.211,0.588,4.824C71.117,118.019,67.376,118.475,64.907,117.424z"
									/>
							</g>
							<g id="XMLID_371_">
								<path id="XMLID_376_" style="fill:#37474F;" d="M64.665,116.153c-2.52-1.073-2.788-3.276-0.6-4.922
									c2.189-1.646,6.006-2.111,8.526-1.038c2.52,1.073,2.788,3.276,0.6,4.922C71.002,116.76,67.185,117.225,64.665,116.153z"/>
							</g>
							<g id="XMLID_367_">
								<path id="XMLID_369_" style="fill:#BA68C8;" d="M64.415,78.576c-8.371,1.02-14.33,8.632-13.31,17.003
									c1.466,12.032,11.636,12.821,12.227,17.67c0.094,0.773,0.699,1.483,1.792,1.948c2.186,0.93,5.496,0.527,7.395-0.901
									c0.949-0.714,1.366-1.549,1.271-2.321h0c-0.591-4.85,9.093-8.057,7.628-20.089C80.398,83.516,72.785,77.557,64.415,78.576z"
									/>
							</g>
							<g id="XMLID_362_" style="opacity:0.6;">
								<path id="XMLID_363_" style="fill:#FFFFFF;" d="M64.415,78.576c-8.371,1.02-14.33,8.632-13.31,17.003
									c1.466,12.032,11.636,12.821,12.227,17.67c0.094,0.773,0.699,1.483,1.792,1.948c2.186,0.93,5.496,0.527,7.395-0.901
									c0.949-0.714,1.366-1.549,1.271-2.321h0c-0.591-4.85,9.093-8.057,7.628-20.089C80.398,83.516,72.785,77.557,64.415,78.576z"
									/>
							</g>
							<g id="XMLID_320_">
								<path id="XMLID_361_" style="fill:#BA68C8;" d="M65.96,114.429c-1.644-0.7-1.819-2.137-0.391-3.211
									c1.428-1.074,3.917-1.377,5.561-0.677c1.644,0.7,1.819,2.137,0.391,3.211C70.093,114.826,67.604,115.129,65.96,114.429z"/>
							</g>
						</g>
					</g>
					<g id="XMLID_274_">
						<path id="XMLID_279_" style="fill:#FFFFFF;" d="M70.521,111.863c-0.279,0.034-0.535-0.161-0.576-0.441
							c-0.023-0.163-0.564-4.048,0.008-8.79c0.111-0.92,0.267-1.758,0.461-2.5c-0.44-0.099-0.906-0.257-1.393-0.483
							c-0.87-0.402-1.612-0.904-2.216-1.446c-0.456,0.671-1.057,1.338-1.804,1.936c-0.419,0.336-0.833,0.601-1.237,0.803
							c0.368,0.674,0.72,1.45,1.049,2.317c1.694,4.466,2.101,8.367,2.118,8.531c0.029,0.285-0.169,0.512-0.464,0.567
							c-0.284,0.029-0.539-0.179-0.568-0.464c-0.004-0.038-0.412-3.934-2.055-8.268c-0.35-0.921-0.709-1.684-1.058-2.306
							c-1.235,0.332-2.299,0.075-2.97-0.493c-0.67-0.567-0.863-1.409-0.479-2.095c0.291-0.521,0.771-0.798,1.328-0.757
							c0.831,0.062,1.721,0.798,2.565,2.074c0.361-0.173,0.739-0.408,1.125-0.717c0.748-0.601,1.314-1.254,1.718-1.885
							c-0.833-0.994-1.223-2.031-1.102-2.798c0.104-0.662,0.575-1.107,1.258-1.191c0.684-0.083,1.247,0.236,1.507,0.854
							c0.301,0.716,0.172,1.816-0.398,2.981c0.543,0.516,1.25,1.014,2.12,1.417c0.449,0.207,0.872,0.345,1.264,0.426
							c0.513-1.439,1.201-2.369,1.992-2.629c0.528-0.167,1.063-0.02,1.47,0.416c0.537,0.575,0.552,1.438,0.038,2.149
							c-0.515,0.712-1.488,1.216-2.764,1.191c-0.19,0.688-0.356,1.515-0.474,2.493c-0.555,4.608-0.016,8.481-0.01,8.519
							c0.041,0.284-0.156,0.546-0.44,0.587C70.528,111.862,70.524,111.862,70.521,111.863z M60.513,99.008
							c-0.087,0.011-0.179,0.062-0.272,0.228c-0.208,0.374,0.134,0.705,0.244,0.799c0.374,0.316,0.983,0.479,1.711,0.348
							c-0.67-0.94-1.259-1.35-1.608-1.376C60.564,99.005,60.539,99.005,60.513,99.008z M71.803,99.213
							c0.734-0.047,1.29-0.352,1.578-0.749c0.084-0.117,0.337-0.521,0.045-0.834c-0.168-0.18-0.29-0.173-0.392-0.139
							C72.701,97.601,72.228,98.14,71.803,99.213z M66.352,94.485c-0.261,0.032-0.333,0.153-0.36,0.324
							c-0.062,0.394,0.137,0.993,0.598,1.636c0.293-0.735,0.343-1.365,0.188-1.732C66.712,94.553,66.614,94.453,66.352,94.485z"/>
					</g>
				</g>
				<g>
					<g>
						<path style="fill:#E0E0E0;" d="M74.185,73.735c-0.515-0.211-0.763-0.799-0.553-1.314l1.98-4.886
							c0.209-0.518,0.8-0.767,1.316-0.558c0.002,0.001,0.004,0.001,0.005,0.002c0.515,0.211,0.763,0.799,0.553,1.314l-1.98,4.886
							c-0.209,0.518-0.8,0.768-1.316,0.557C74.188,73.737,74.186,73.736,74.185,73.735z"/>
					</g>
					<g>
						<path style="fill:#E0E0E0;" d="M62.63,72.303c-0.322-0.132-0.567-0.428-0.618-0.796l-0.727-5.221
							c-0.077-0.553,0.308-1.064,0.861-1.141c0.553-0.077,1.064,0.31,1.141,0.861l0.727,5.221c0.077,0.553-0.309,1.064-0.861,1.141
							C62.97,72.394,62.79,72.369,62.63,72.303z"/>
					</g>
					<g>
						<path style="fill:#E0E0E0;" d="M51.904,76.84c-0.157-0.064-0.301-0.17-0.413-0.314l-3.241-4.158
							c-0.343-0.441-0.265-1.076,0.176-1.419c0.44-0.343,1.076-0.265,1.419,0.176l3.241,4.158c0.343,0.441,0.265,1.076-0.176,1.419
							C52.615,76.933,52.23,76.973,51.904,76.84z"/>
					</g>
					<g>
						<path style="fill:#E0E0E0;" d="M40.002,84.149c-0.515-0.211-0.763-0.799-0.553-1.315c0.209-0.517,0.799-0.767,1.317-0.556
							l4.885,1.981c0.001,0,0.003,0.001,0.004,0.002c0.515,0.211,0.763,0.799,0.553,1.315c-0.209,0.517-0.799,0.767-1.317,0.556
							l-4.885-1.981C40.004,84.15,40.002,84.15,40.002,84.149z"/>
					</g>
					<g>
						<path style="fill:#E0E0E0;" d="M38.233,98.415c-0.322-0.132-0.567-0.428-0.618-0.796c-0.077-0.553,0.308-1.064,0.861-1.141
							l5.221-0.727c0.554-0.077,1.064,0.31,1.141,0.861c0.077,0.553-0.309,1.064-0.861,1.141l-5.221,0.727
							C38.573,98.505,38.393,98.48,38.233,98.415z"/>
					</g>
					<g>
						<path style="fill:#E0E0E0;" d="M88.014,91.479c-0.322-0.132-0.566-0.428-0.618-0.796c-0.077-0.553,0.308-1.064,0.861-1.141
							l5.221-0.727c0.553-0.077,1.064,0.31,1.141,0.861c0.077,0.553-0.309,1.064-0.861,1.141l-5.221,0.727
							C88.354,91.57,88.174,91.545,88.014,91.479z"/>
					</g>
					<g>
						<path style="fill:#E0E0E0;" d="M83.475,80.755c-0.157-0.065-0.301-0.17-0.413-0.314c-0.343-0.44-0.265-1.076,0.176-1.419
							l4.158-3.241c0.44-0.343,1.076-0.265,1.419,0.176c0.343,0.441,0.265,1.076-0.176,1.419l-4.157,3.241
							C84.185,80.848,83.799,80.888,83.475,80.755z"/>
					</g>
				</g>
			</g>
		</g>
		<g>
			<path style="fill:#455A64;" d="M117.976,196.082l-5.274,2.914c-0.641,0.354-1.18,1.235-1.201,1.967
				c-0.133,4.728-0.567,23.327,0.189,32.217c0.062,0.73,0.642,1.615,1.281,1.973c3.012,1.69,11.137,6.146,14.867,7.181
				c0.706,0.196,1.855-0.005,2.535-0.278l3.759-1.509c0.68-0.273,1.222-1.089,1.225-1.821c0.035-9.438,1.72-22.185,3.286-32.467
				c0.11-0.724-0.336-1.569-0.995-1.887l-17.317-8.355C119.671,195.699,118.617,195.728,117.976,196.082z"/>
			<path style="fill:#37474F;" d="M111.691,233.178c-0.756-8.889-0.322-27.485-0.189-32.214c0.021-0.732,0.571-1.063,1.227-0.737
				l16.116,8.009c0.656,0.326,1.135,1.183,1.075,1.913c-0.342,4.193-1.365,19.948-0.847,31.077c0.034,0.732-0.53,1.303-1.235,1.107
				c-3.731-1.035-11.853-5.49-14.866-7.18C112.334,234.795,111.753,233.908,111.691,233.178z"/>
			<path style="fill:#263238;" d="M128.036,242.365c0.707,0.137,1.723-0.068,2.339-0.313l3.76-1.512
				c0.682-0.261,1.161-1.089,1.216-1.817c0.735-9.694,1.721-22.185,3.292-32.464c0.055-0.347-0.022-0.702-0.192-1.029l-8.724,3.979
				c0.142,0.301,0.219,0.63,0.189,0.936c-0.344,4.204-1.367,19.957-0.842,31.086C129.109,241.894,128.648,242.426,128.036,242.365z"
				/>
			<path style="fill:#263238;" d="M113.753,204.002l14.12,6.585l-0.684,12.007l-13.822-5.939
				C113.367,216.656,113.503,208.082,113.753,204.002z"/>
			<path style="fill:#BA68C8;" d="M127.237,221.861l-13.211-5.67c0,0,0.127-7.846,0.342-11.891l13.504,6.287L127.237,221.861z"/>
			<path style="opacity:0.4;" d="M127.237,221.861l-13.211-5.67c0,0,0.127-7.846,0.342-11.891l13.504,6.287L127.237,221.861z"/>
			<polygon style="fill:#FAFAFA;" points="121.327,208.607 118.366,212.891 120.228,213.535 118.78,217.31 122.091,212.85 
				120.228,212.152 			"/>
			<g>
				<g>
					<path style="fill:#263238;" d="M126.295,225.337l-0.083,1.188c-0.026,0.365-0.321,0.549-0.66,0.41l-2.14-0.878
						c-0.339-0.139-0.596-0.548-0.575-0.914l0.071-1.217c0.021-0.366,0.313-0.548,0.651-0.407l2.169,0.902
						C126.067,224.561,126.321,224.972,126.295,225.337z"/>
					<path style="fill:#263238;" d="M126.315,229.209l-0.065,1.189c-0.02,0.366-0.312,0.554-0.653,0.42l-2.152-0.844
						c-0.341-0.134-0.604-0.539-0.589-0.905l0.052-1.217c0.016-0.366,0.304-0.553,0.645-0.417l2.182,0.868
						C126.075,228.437,126.335,228.843,126.315,229.209z"/>
					<path style="fill:#263238;" d="M126.335,233.08l-0.047,1.19c-0.014,0.366-0.304,0.559-0.647,0.43l-2.164-0.811
						c-0.343-0.129-0.613-0.53-0.603-0.896l0.033-1.218c0.01-0.366,0.296-0.557,0.638-0.427l2.195,0.835
						C126.083,232.312,126.349,232.714,126.335,233.08z"/>
					<path style="fill:#263238;" d="M126.354,236.951l-0.028,1.191c-0.009,0.366-0.295,0.563-0.64,0.44l-2.178-0.779
						c-0.345-0.123-0.621-0.52-0.617-0.886l0.015-1.219c0.004-0.366,0.287-0.562,0.631-0.437l2.209,0.801
						C126.091,236.187,126.363,236.585,126.354,236.951z"/>
				</g>
				<g>
					<path style="fill:#263238;" d="M121.504,223.152l-0.064,1.239c-0.019,0.366-0.308,0.549-0.647,0.409l-2.125-0.88
						c-0.339-0.14-0.601-0.55-0.586-0.916l0.051-1.268c0.015-0.366,0.3-0.548,0.638-0.406l2.155,0.904
						C121.264,222.375,121.522,222.787,121.504,223.152z"/>
					<path style="fill:#263238;" d="M121.487,226.997l-0.058,1.239c-0.017,0.366-0.306,0.55-0.645,0.411l-2.13-0.87
						c-0.339-0.138-0.603-0.547-0.59-0.913l0.045-1.268c0.013-0.366,0.298-0.549,0.636-0.409l2.159,0.894
						C121.244,226.221,121.504,226.631,121.487,226.997z"/>
					<path style="fill:#263238;" d="M121.471,230.842l-0.052,1.239c-0.015,0.366-0.303,0.551-0.643,0.415l-2.133-0.86
						c-0.34-0.137-0.606-0.545-0.595-0.911l0.039-1.269c0.011-0.366,0.295-0.55,0.634-0.412l2.164,0.884
						C121.224,230.067,121.486,230.476,121.471,230.842z"/>
					<path style="fill:#263238;" d="M121.454,234.686l-0.046,1.24c-0.014,0.366-0.3,0.553-0.641,0.418l-2.138-0.85
						c-0.34-0.135-0.608-0.542-0.599-0.908l0.033-1.269c0.009-0.366,0.293-0.552,0.632-0.415l2.168,0.874
						C121.204,233.912,121.468,234.32,121.454,234.686z"/>
				</g>
				<g>
					<g>
						<path style="fill:#263238;" d="M116.712,220.968l-0.043,1.29c-0.012,0.366-0.296,0.548-0.634,0.407l-2.111-0.882
							c-0.338-0.141-0.605-0.552-0.597-0.918l0.03-1.32c0.008-0.366,0.289-0.547,0.626-0.404l2.141,0.906
							C116.46,220.189,116.724,220.602,116.712,220.968z"/>
					</g>
					<g>
						<path style="fill:#263238;" d="M116.725,224.707l-0.043,1.29c-0.012,0.366-0.296,0.548-0.634,0.407l-2.112-0.882
							c-0.338-0.141-0.605-0.552-0.597-0.918l0.03-1.32c0.008-0.366,0.288-0.547,0.626-0.404l2.141,0.906
							C116.474,223.928,116.738,224.341,116.725,224.707z"/>
					</g>
					<g>
						<path style="fill:#263238;" d="M116.739,228.446l-0.043,1.29c-0.012,0.366-0.296,0.548-0.634,0.407l-2.111-0.882
							c-0.338-0.141-0.605-0.552-0.597-0.919l0.03-1.32c0.008-0.366,0.289-0.547,0.626-0.404l2.141,0.906
							C116.488,227.668,116.751,228.08,116.739,228.446z"/>
					</g>
					<path style="fill:#263238;" d="M116.753,232.186l-0.043,1.29c-0.012,0.366-0.296,0.548-0.634,0.407l-2.111-0.882
						c-0.338-0.141-0.605-0.552-0.597-0.919l0.03-1.32c0.008-0.366,0.288-0.547,0.626-0.405l2.141,0.906
						C116.501,231.407,116.765,231.82,116.753,232.186z"/>
				</g>
			</g>
		</g>
	</g>
</g>
<g id="Fuse_box_1_">
	<g id="Fuse_box">
		<g id="Plants_1_">
			<g>
				<path style="fill:#BA68C8;" d="M358.231,389.496l-9.224-3.138c-0.79-8.839,0.349-30.257,14.721-42.829
					c14.589-12.762,24.114-4.576,23.835,0.959c-0.307,6.092-13.392,11.801-20.023,20.025
					C360.333,373.452,358.076,379.553,358.231,389.496z"/>
				<path style="opacity:0.5;fill:#FFFFFF;" d="M358.231,389.496l-9.224-3.138c-0.79-8.839,0.349-30.257,14.721-42.829
					c14.589-12.762,24.114-4.576,23.835,0.959c-0.307,6.092-13.392,11.801-20.023,20.025
					C360.333,373.452,358.076,379.553,358.231,389.496z"/>
				<g>
					<path style="fill:#FFFFFF;" d="M352.017,387.871c-0.001,0-0.002,0-0.003,0c-0.276-0.002-0.499-0.227-0.497-0.503
						c0.128-23.783,17.797-44.59,26.59-45.938c0.277-0.04,0.529,0.145,0.57,0.418c0.042,0.274-0.146,0.528-0.418,0.57
						c-8.624,1.322-25.621,22.494-25.742,44.955C352.515,387.65,352.293,387.871,352.017,387.871z"/>
				</g>
			</g>
			<g>
				<path style="fill:#BA68C8;" d="M380.164,368.181c-7.968-2.633-25.401,6.121-28.774,19.011l6.842,2.304
					c0,0,8.018-7.097,19.29-8.242C388.793,380.108,388.132,370.814,380.164,368.181z"/>
				<path style="opacity:0.65;fill:#FFFFFF;" d="M380.164,368.181c-7.968-2.633-25.401,6.121-28.774,19.011l6.842,2.304
					c0,0,8.018-7.097,19.29-8.242C388.793,380.108,388.132,370.814,380.164,368.181z"/>
				<g>
					<path style="fill:#FFFFFF;" d="M354.511,388.924c-0.078,0-0.156-0.018-0.23-0.056c-0.245-0.127-0.342-0.429-0.215-0.674
						c6.849-13.233,21.722-17.14,27.774-15.523c0.267,0.071,0.426,0.346,0.354,0.612c-0.071,0.266-0.343,0.421-0.612,0.355
						c-5.783-1.55-20.021,2.252-26.627,15.016C354.867,388.825,354.692,388.924,354.511,388.924z"/>
				</g>
			</g>
		</g>
		<g id="Box">
			<g>
				<path style="fill:#455A64;" d="M346.789,241.28v147.88l0,0c0,0.826,0.546,1.653,1.639,2.283c2.185,1.261,5.727,1.261,7.911,0
					c1.092-0.63,1.638-1.457,1.638-2.283l0,0V241.28H346.789z"/>
				<polygon style="fill:#37474F;" points="346.789,269 357.977,262.54 357.977,241.28 346.789,241.28 				"/>
			</g>
			<g>
				<polygon style="fill:#BA68C8;" points="331.159,266.624 408.338,222.065 408.338,83.932 331.159,128.491 				"/>
				<g>
					<polygon style="fill:#BA68C8;" points="408.338,83.932 373.606,63.88 296.428,108.439 331.159,128.491 					"/>
					<polygon style="opacity:0.2;fill:#FFFFFF;" points="408.338,83.932 373.606,63.88 296.428,108.439 331.159,128.491 					"/>
				</g>
				<g>
					<polygon style="fill:#BA68C8;" points="296.428,108.439 296.429,246.572 331.159,266.624 331.159,128.491 					"/>
					<polygon style="opacity:0.2;" points="296.428,108.439 296.429,246.572 331.159,266.624 331.159,128.491 					"/>
				</g>
				<polygon style="fill:#FAFAFA;" points="380.369,119.845 351.747,194.291 369.748,179.734 355.755,232.372 387.749,152.326 
					369.748,166.366 				"/>
				<g>
					<path style="fill:#37474F;" d="M336.947,129.605c1.066-0.615,1.929-0.117,1.929,1.114c0,1.23-0.864,2.727-1.929,3.342
						c-1.066,0.615-1.93,0.117-1.93-1.114C335.018,131.716,335.881,130.22,336.947,129.605z"/>
					<path style="fill:#37474F;" d="M336.947,254.376c1.066-0.615,1.929-0.117,1.929,1.114c0,1.23-0.864,2.727-1.929,3.342
						c-1.066,0.615-1.93,0.117-1.93-1.114S335.881,254.992,336.947,254.376z"/>
					<path style="fill:#37474F;" d="M402.555,91.726c1.066-0.615,1.93-0.116,1.93,1.114c0,1.23-0.864,2.727-1.93,3.342
						c-1.066,0.615-1.93,0.117-1.93-1.114S401.489,92.341,402.555,91.726z"/>
					<path style="fill:#37474F;" d="M402.555,216.498c1.066-0.615,1.93-0.117,1.93,1.114c0,1.23-0.864,2.727-1.93,3.342
						c-1.066,0.615-1.93,0.117-1.93-1.114C400.625,218.609,401.489,217.113,402.555,216.498z"/>
				</g>
			</g>
			<g>
				<polygon style="fill:#BA68C8;" points="408.338,83.932 408.337,181.962 450.785,157.454 450.785,19.322 373.605,63.88 				"/>
				<polygon style="fill:#BA68C8;" points="450.785,19.322 373.606,63.88 369.747,61.652 446.926,17.093 				"/>
				<polygon style="opacity:0.2;fill:#FFFFFF;" points="450.785,19.322 373.606,63.88 369.747,61.652 446.926,17.093 				"/>
				<polygon style="fill:#BA68C8;" points="369.747,66.108 369.747,61.652 373.606,63.88 				"/>
				<polygon style="opacity:0.2;" points="369.747,66.108 369.747,61.652 373.606,63.88 				"/>
				<polygon style="opacity:0.2;" points="373.606,63.88 423.307,77.517 423.307,173.319 408.337,181.962 408.338,83.932 				"/>
			</g>
		</g>
	</g>
</g>
</svg>
